<mxfile host="app.diagrams.net" agent="Mozilla/5.0 (Windows NT 10.0; Win64; x64) AppleWebKit/537.36 (KHTML, like Gecko) Chrome/138.0.0.0 Safari/537.36" version="27.2.0">
  <diagram name="Page-1" id="gtFvXWTCCxqgUbGz4lHD">
    <mxGraphModel dx="1892" dy="527" grid="1" gridSize="10" guides="1" tooltips="1" connect="1" arrows="1" fold="1" page="1" pageScale="1" pageWidth="850" pageHeight="1100" math="0" shadow="0">
      <root>
        <mxCell id="0" />
        <mxCell id="1" parent="0" />
        <mxCell id="A2vJV-OQSbmhu9kA1xCI-1" value="AWS Account" style="points=[[0,0],[0.25,0],[0.5,0],[0.75,0],[1,0],[1,0.25],[1,0.5],[1,0.75],[1,1],[0.75,1],[0.5,1],[0.25,1],[0,1],[0,0.75],[0,0.5],[0,0.25]];outlineConnect=0;html=1;whiteSpace=wrap;fontSize=12;fontStyle=0;container=1;pointerEvents=0;collapsible=0;recursiveResize=0;shape=mxgraph.aws4.group;grIcon=mxgraph.aws4.group_account;verticalAlign=top;align=left;spacingLeft=30;dashed=0;" parent="1" vertex="1">
          <mxGeometry x="40" y="80" width="920" height="520" as="geometry" />
        </mxCell>
        <mxCell id="An_1RY7F4cl6Hvax1nNE-57" value="&lt;b&gt;&lt;font face=&quot;Comic Sans MS&quot; style=&quot;font-size: 10px;&quot;&gt;dev.daws84s.site&lt;/font&gt;&lt;/b&gt;" style="text;html=1;align=center;verticalAlign=middle;resizable=0;points=[];autosize=1;strokeColor=none;fillColor=none;" parent="A2vJV-OQSbmhu9kA1xCI-1" vertex="1">
          <mxGeometry x="-31.250000000000014" y="263" width="110" height="30" as="geometry" />
        </mxCell>
        <mxCell id="A2vJV-OQSbmhu9kA1xCI-2" value="VPC" style="points=[[0,0],[0.25,0],[0.5,0],[0.75,0],[1,0],[1,0.25],[1,0.5],[1,0.75],[1,1],[0.75,1],[0.5,1],[0.25,1],[0,1],[0,0.75],[0,0.5],[0,0.25]];outlineConnect=0;html=1;whiteSpace=wrap;fontSize=12;fontStyle=0;container=1;pointerEvents=0;collapsible=0;recursiveResize=0;shape=mxgraph.aws4.group;grIcon=mxgraph.aws4.group_vpc2;verticalAlign=top;align=left;spacingLeft=30;dashed=0;" parent="1" vertex="1">
          <mxGeometry x="110" y="110" width="810" height="440" as="geometry" />
        </mxCell>
        <mxCell id="A2vJV-OQSbmhu9kA1xCI-4" value="Public subnet" style="points=[[0,0],[0.25,0],[0.5,0],[0.75,0],[1,0],[1,0.25],[1,0.5],[1,0.75],[1,1],[0.75,1],[0.5,1],[0.25,1],[0,1],[0,0.75],[0,0.5],[0,0.25]];outlineConnect=0;gradientColor=none;html=1;whiteSpace=wrap;fontSize=12;fontStyle=0;container=1;pointerEvents=0;collapsible=0;recursiveResize=0;shape=mxgraph.aws4.group;grIcon=mxgraph.aws4.group_security_group;grStroke=0;strokeColor=#7AA116;fillColor=#F2F6E8;verticalAlign=top;align=left;spacingLeft=30;fontColor=#248814;dashed=0;" parent="A2vJV-OQSbmhu9kA1xCI-2" vertex="1">
          <mxGeometry x="50" y="40" width="160" height="370" as="geometry" />
        </mxCell>
        <mxCell id="A2vJV-OQSbmhu9kA1xCI-7" value="" style="points=[];aspect=fixed;html=1;align=center;shadow=0;dashed=0;fillColor=#FF6A00;strokeColor=none;shape=mxgraph.alibaba_cloud.bastionhost;" parent="A2vJV-OQSbmhu9kA1xCI-4" vertex="1">
          <mxGeometry x="30" y="50" width="50.53" height="40" as="geometry" />
        </mxCell>
        <mxCell id="A2vJV-OQSbmhu9kA1xCI-8" value="" style="sketch=0;aspect=fixed;pointerEvents=1;shadow=0;dashed=0;html=1;strokeColor=none;labelPosition=center;verticalLabelPosition=bottom;verticalAlign=top;align=center;fillColor=#00188D;shape=mxgraph.mscae.enterprise.lock_unlocked" parent="A2vJV-OQSbmhu9kA1xCI-4" vertex="1">
          <mxGeometry x="42.35000000000001" y="20" width="29.6" height="40" as="geometry" />
        </mxCell>
        <mxCell id="A2vJV-OQSbmhu9kA1xCI-11" value="" style="html=1;strokeWidth=1;shadow=0;dashed=0;shape=mxgraph.ios7.misc.vpn;fillColor=#007AFF;strokeColor=none;buttonText=;strokeColor2=#222222;fontColor=#222222;fontSize=8;verticalLabelPosition=bottom;verticalAlign=top;align=center;sketch=0;" parent="A2vJV-OQSbmhu9kA1xCI-4" vertex="1">
          <mxGeometry x="33.76" y="280" width="46.77" height="50" as="geometry" />
        </mxCell>
        <mxCell id="A2vJV-OQSbmhu9kA1xCI-17" value="" style="sketch=0;aspect=fixed;pointerEvents=1;shadow=0;dashed=0;html=1;strokeColor=none;labelPosition=center;verticalLabelPosition=bottom;verticalAlign=top;align=center;fillColor=#00188D;shape=mxgraph.mscae.enterprise.lock_unlocked" parent="A2vJV-OQSbmhu9kA1xCI-4" vertex="1">
          <mxGeometry x="40.46000000000001" y="240" width="29.6" height="40" as="geometry" />
        </mxCell>
        <mxCell id="A2vJV-OQSbmhu9kA1xCI-3" value="&lt;b&gt;&lt;font face=&quot;Comic Sans MS&quot; style=&quot;font-size: 10px;&quot;&gt;Private subnet&lt;/font&gt;&lt;/b&gt;" style="points=[[0,0],[0.25,0],[0.5,0],[0.75,0],[1,0],[1,0.25],[1,0.5],[1,0.75],[1,1],[0.75,1],[0.5,1],[0.25,1],[0,1],[0,0.75],[0,0.5],[0,0.25]];outlineConnect=0;gradientColor=none;html=1;whiteSpace=wrap;fontSize=12;fontStyle=0;container=1;pointerEvents=0;collapsible=0;recursiveResize=0;shape=mxgraph.aws4.group;grIcon=mxgraph.aws4.group_security_group;grStroke=0;strokeColor=#00A4A6;fillColor=#E6F6F7;verticalAlign=top;align=left;spacingLeft=30;fontColor=#147EBA;dashed=0;" parent="A2vJV-OQSbmhu9kA1xCI-2" vertex="1">
          <mxGeometry x="330" y="40" width="200" height="370" as="geometry" />
        </mxCell>
        <mxCell id="XsuamS3QXFXl19HTuxb_-1" value="" style="rounded=1;whiteSpace=wrap;html=1;fillColor=#dae8fc;gradientColor=#7ea6e0;strokeColor=#6c8ebf;" parent="A2vJV-OQSbmhu9kA1xCI-3" vertex="1">
          <mxGeometry x="20" y="30" width="90" height="50" as="geometry" />
        </mxCell>
        <mxCell id="An_1RY7F4cl6Hvax1nNE-2" value="" style="sketch=0;points=[[0,0,0],[0.25,0,0],[0.5,0,0],[0.75,0,0],[1,0,0],[0,1,0],[0.25,1,0],[0.5,1,0],[0.75,1,0],[1,1,0],[0,0.25,0],[0,0.5,0],[0,0.75,0],[1,0.25,0],[1,0.5,0],[1,0.75,0]];outlineConnect=0;fontColor=#232F3E;fillColor=#ED7100;strokeColor=#ffffff;dashed=0;verticalLabelPosition=bottom;verticalAlign=top;align=center;html=1;fontSize=12;fontStyle=0;aspect=fixed;shape=mxgraph.aws4.resourceIcon;resIcon=mxgraph.aws4.ec2;" parent="A2vJV-OQSbmhu9kA1xCI-3" vertex="1">
          <mxGeometry x="70" y="45" width="20" height="20" as="geometry" />
        </mxCell>
        <mxCell id="An_1RY7F4cl6Hvax1nNE-1" value="" style="sketch=0;points=[[0,0,0],[0.25,0,0],[0.5,0,0],[0.75,0,0],[1,0,0],[0,1,0],[0.25,1,0],[0.5,1,0],[0.75,1,0],[1,1,0],[0,0.25,0],[0,0.5,0],[0,0.75,0],[1,0.25,0],[1,0.5,0],[1,0.75,0]];outlineConnect=0;fontColor=#232F3E;fillColor=#ED7100;strokeColor=#ffffff;dashed=0;verticalLabelPosition=bottom;verticalAlign=top;align=center;html=1;fontSize=12;fontStyle=0;aspect=fixed;shape=mxgraph.aws4.resourceIcon;resIcon=mxgraph.aws4.ec2;" parent="A2vJV-OQSbmhu9kA1xCI-3" vertex="1">
          <mxGeometry x="40" y="45" width="20" height="20" as="geometry" />
        </mxCell>
        <mxCell id="An_1RY7F4cl6Hvax1nNE-4" value="" style="sketch=0;outlineConnect=0;fontColor=#232F3E;gradientColor=none;fillColor=#ED7100;strokeColor=none;dashed=0;verticalLabelPosition=bottom;verticalAlign=top;align=center;html=1;fontSize=12;fontStyle=0;aspect=fixed;pointerEvents=1;shape=mxgraph.aws4.auto_scaling2;" parent="A2vJV-OQSbmhu9kA1xCI-3" vertex="1">
          <mxGeometry x="90" y="60" width="33" height="33" as="geometry" />
        </mxCell>
        <mxCell id="An_1RY7F4cl6Hvax1nNE-5" value="&lt;b&gt;&lt;font style=&quot;font-size: 8px;&quot; face=&quot;Comic Sans MS&quot;&gt;Catalogue&lt;/font&gt;&lt;/b&gt;" style="text;html=1;align=center;verticalAlign=middle;resizable=0;points=[];autosize=1;strokeColor=none;fillColor=none;" parent="A2vJV-OQSbmhu9kA1xCI-3" vertex="1">
          <mxGeometry x="35" y="20" width="60" height="30" as="geometry" />
        </mxCell>
        <mxCell id="An_1RY7F4cl6Hvax1nNE-63" style="edgeStyle=orthogonalEdgeStyle;rounded=0;orthogonalLoop=1;jettySize=auto;html=1;" parent="A2vJV-OQSbmhu9kA1xCI-3" source="An_1RY7F4cl6Hvax1nNE-7" edge="1">
          <mxGeometry relative="1" as="geometry">
            <mxPoint x="230" y="50" as="targetPoint" />
          </mxGeometry>
        </mxCell>
        <mxCell id="An_1RY7F4cl6Hvax1nNE-7" value="" style="rounded=1;whiteSpace=wrap;html=1;fillColor=#d5e8d4;gradientColor=#97d077;strokeColor=#82b366;" parent="A2vJV-OQSbmhu9kA1xCI-3" vertex="1">
          <mxGeometry x="20" y="100" width="90" height="50" as="geometry" />
        </mxCell>
        <mxCell id="An_1RY7F4cl6Hvax1nNE-8" value="" style="sketch=0;outlineConnect=0;fontColor=#232F3E;gradientColor=none;fillColor=#ED7100;strokeColor=none;dashed=0;verticalLabelPosition=bottom;verticalAlign=top;align=center;html=1;fontSize=12;fontStyle=0;aspect=fixed;pointerEvents=1;shape=mxgraph.aws4.auto_scaling2;" parent="A2vJV-OQSbmhu9kA1xCI-3" vertex="1">
          <mxGeometry x="97" y="130" width="33" height="33" as="geometry" />
        </mxCell>
        <mxCell id="An_1RY7F4cl6Hvax1nNE-9" value="" style="sketch=0;points=[[0,0,0],[0.25,0,0],[0.5,0,0],[0.75,0,0],[1,0,0],[0,1,0],[0.25,1,0],[0.5,1,0],[0.75,1,0],[1,1,0],[0,0.25,0],[0,0.5,0],[0,0.75,0],[1,0.25,0],[1,0.5,0],[1,0.75,0]];outlineConnect=0;fontColor=#232F3E;fillColor=#ED7100;strokeColor=#ffffff;dashed=0;verticalLabelPosition=bottom;verticalAlign=top;align=center;html=1;fontSize=12;fontStyle=0;aspect=fixed;shape=mxgraph.aws4.resourceIcon;resIcon=mxgraph.aws4.ec2;" parent="A2vJV-OQSbmhu9kA1xCI-3" vertex="1">
          <mxGeometry x="40" y="120" width="20" height="20" as="geometry" />
        </mxCell>
        <mxCell id="An_1RY7F4cl6Hvax1nNE-10" value="" style="sketch=0;points=[[0,0,0],[0.25,0,0],[0.5,0,0],[0.75,0,0],[1,0,0],[0,1,0],[0.25,1,0],[0.5,1,0],[0.75,1,0],[1,1,0],[0,0.25,0],[0,0.5,0],[0,0.75,0],[1,0.25,0],[1,0.5,0],[1,0.75,0]];outlineConnect=0;fontColor=#232F3E;fillColor=#ED7100;strokeColor=#ffffff;dashed=0;verticalLabelPosition=bottom;verticalAlign=top;align=center;html=1;fontSize=12;fontStyle=0;aspect=fixed;shape=mxgraph.aws4.resourceIcon;resIcon=mxgraph.aws4.ec2;" parent="A2vJV-OQSbmhu9kA1xCI-3" vertex="1">
          <mxGeometry x="70" y="120" width="20" height="20" as="geometry" />
        </mxCell>
        <mxCell id="An_1RY7F4cl6Hvax1nNE-15" value="" style="rounded=1;whiteSpace=wrap;html=1;fillColor=#fff2cc;gradientColor=#ffd966;strokeColor=#d6b656;" parent="A2vJV-OQSbmhu9kA1xCI-3" vertex="1">
          <mxGeometry x="20" y="170" width="90" height="50" as="geometry" />
        </mxCell>
        <mxCell id="An_1RY7F4cl6Hvax1nNE-16" value="" style="rounded=1;whiteSpace=wrap;html=1;fillColor=#f8cecc;gradientColor=#ea6b66;strokeColor=#b85450;" parent="A2vJV-OQSbmhu9kA1xCI-3" vertex="1">
          <mxGeometry x="20" y="240" width="90" height="50" as="geometry" />
        </mxCell>
        <mxCell id="An_1RY7F4cl6Hvax1nNE-18" value="" style="rounded=1;whiteSpace=wrap;html=1;fillColor=#d5e8d4;gradientColor=#97d077;strokeColor=#82b366;" parent="A2vJV-OQSbmhu9kA1xCI-3" vertex="1">
          <mxGeometry x="20" y="310" width="90" height="50" as="geometry" />
        </mxCell>
        <mxCell id="An_1RY7F4cl6Hvax1nNE-22" value="&lt;font style=&quot;font-size: 8px;&quot; face=&quot;Comic Sans MS&quot;&gt;&lt;b style=&quot;&quot;&gt;cart.backend-dev.daws84s.site&lt;/b&gt;&lt;/font&gt;" style="text;html=1;align=center;verticalAlign=middle;resizable=0;points=[];autosize=1;strokeColor=none;fillColor=none;" parent="A2vJV-OQSbmhu9kA1xCI-3" vertex="1">
          <mxGeometry x="-27" y="150" width="150" height="30" as="geometry" />
        </mxCell>
        <mxCell id="An_1RY7F4cl6Hvax1nNE-24" value="&lt;font style=&quot;font-size: 8px;&quot; face=&quot;Comic Sans MS&quot;&gt;&lt;b style=&quot;&quot;&gt;payment.backend-dev.daws84s.site&lt;/b&gt;&lt;/font&gt;" style="text;html=1;align=center;verticalAlign=middle;resizable=0;points=[];autosize=1;strokeColor=none;fillColor=none;" parent="A2vJV-OQSbmhu9kA1xCI-3" vertex="1">
          <mxGeometry x="-20" y="290" width="160" height="30" as="geometry" />
        </mxCell>
        <mxCell id="An_1RY7F4cl6Hvax1nNE-27" value="&lt;b&gt;&lt;font style=&quot;font-size: 8px;&quot; face=&quot;Comic Sans MS&quot;&gt;Payment&lt;/font&gt;&lt;/b&gt;" style="text;html=1;align=center;verticalAlign=middle;resizable=0;points=[];autosize=1;strokeColor=none;fillColor=none;" parent="A2vJV-OQSbmhu9kA1xCI-3" vertex="1">
          <mxGeometry x="35" y="300" width="60" height="30" as="geometry" />
        </mxCell>
        <mxCell id="An_1RY7F4cl6Hvax1nNE-28" value="" style="sketch=0;points=[[0,0,0],[0.25,0,0],[0.5,0,0],[0.75,0,0],[1,0,0],[0,1,0],[0.25,1,0],[0.5,1,0],[0.75,1,0],[1,1,0],[0,0.25,0],[0,0.5,0],[0,0.75,0],[1,0.25,0],[1,0.5,0],[1,0.75,0]];outlineConnect=0;fontColor=#232F3E;fillColor=#ED7100;strokeColor=#ffffff;dashed=0;verticalLabelPosition=bottom;verticalAlign=top;align=center;html=1;fontSize=12;fontStyle=0;aspect=fixed;shape=mxgraph.aws4.resourceIcon;resIcon=mxgraph.aws4.ec2;" parent="A2vJV-OQSbmhu9kA1xCI-3" vertex="1">
          <mxGeometry x="40" y="185" width="20" height="20" as="geometry" />
        </mxCell>
        <mxCell id="An_1RY7F4cl6Hvax1nNE-29" value="" style="sketch=0;points=[[0,0,0],[0.25,0,0],[0.5,0,0],[0.75,0,0],[1,0,0],[0,1,0],[0.25,1,0],[0.5,1,0],[0.75,1,0],[1,1,0],[0,0.25,0],[0,0.5,0],[0,0.75,0],[1,0.25,0],[1,0.5,0],[1,0.75,0]];outlineConnect=0;fontColor=#232F3E;fillColor=#ED7100;strokeColor=#ffffff;dashed=0;verticalLabelPosition=bottom;verticalAlign=top;align=center;html=1;fontSize=12;fontStyle=0;aspect=fixed;shape=mxgraph.aws4.resourceIcon;resIcon=mxgraph.aws4.ec2;" parent="A2vJV-OQSbmhu9kA1xCI-3" vertex="1">
          <mxGeometry x="70" y="185" width="20" height="20" as="geometry" />
        </mxCell>
        <mxCell id="An_1RY7F4cl6Hvax1nNE-30" value="" style="sketch=0;points=[[0,0,0],[0.25,0,0],[0.5,0,0],[0.75,0,0],[1,0,0],[0,1,0],[0.25,1,0],[0.5,1,0],[0.75,1,0],[1,1,0],[0,0.25,0],[0,0.5,0],[0,0.75,0],[1,0.25,0],[1,0.5,0],[1,0.75,0]];outlineConnect=0;fontColor=#232F3E;fillColor=#ED7100;strokeColor=#ffffff;dashed=0;verticalLabelPosition=bottom;verticalAlign=top;align=center;html=1;fontSize=12;fontStyle=0;aspect=fixed;shape=mxgraph.aws4.resourceIcon;resIcon=mxgraph.aws4.ec2;" parent="A2vJV-OQSbmhu9kA1xCI-3" vertex="1">
          <mxGeometry x="40" y="255" width="20" height="20" as="geometry" />
        </mxCell>
        <mxCell id="An_1RY7F4cl6Hvax1nNE-31" value="" style="sketch=0;points=[[0,0,0],[0.25,0,0],[0.5,0,0],[0.75,0,0],[1,0,0],[0,1,0],[0.25,1,0],[0.5,1,0],[0.75,1,0],[1,1,0],[0,0.25,0],[0,0.5,0],[0,0.75,0],[1,0.25,0],[1,0.5,0],[1,0.75,0]];outlineConnect=0;fontColor=#232F3E;fillColor=#ED7100;strokeColor=#ffffff;dashed=0;verticalLabelPosition=bottom;verticalAlign=top;align=center;html=1;fontSize=12;fontStyle=0;aspect=fixed;shape=mxgraph.aws4.resourceIcon;resIcon=mxgraph.aws4.ec2;" parent="A2vJV-OQSbmhu9kA1xCI-3" vertex="1">
          <mxGeometry x="70" y="255" width="20" height="20" as="geometry" />
        </mxCell>
        <mxCell id="An_1RY7F4cl6Hvax1nNE-32" value="" style="sketch=0;points=[[0,0,0],[0.25,0,0],[0.5,0,0],[0.75,0,0],[1,0,0],[0,1,0],[0.25,1,0],[0.5,1,0],[0.75,1,0],[1,1,0],[0,0.25,0],[0,0.5,0],[0,0.75,0],[1,0.25,0],[1,0.5,0],[1,0.75,0]];outlineConnect=0;fontColor=#232F3E;fillColor=#ED7100;strokeColor=#ffffff;dashed=0;verticalLabelPosition=bottom;verticalAlign=top;align=center;html=1;fontSize=12;fontStyle=0;aspect=fixed;shape=mxgraph.aws4.resourceIcon;resIcon=mxgraph.aws4.ec2;" parent="A2vJV-OQSbmhu9kA1xCI-3" vertex="1">
          <mxGeometry x="40" y="325" width="20" height="20" as="geometry" />
        </mxCell>
        <mxCell id="An_1RY7F4cl6Hvax1nNE-33" value="" style="sketch=0;points=[[0,0,0],[0.25,0,0],[0.5,0,0],[0.75,0,0],[1,0,0],[0,1,0],[0.25,1,0],[0.5,1,0],[0.75,1,0],[1,1,0],[0,0.25,0],[0,0.5,0],[0,0.75,0],[1,0.25,0],[1,0.5,0],[1,0.75,0]];outlineConnect=0;fontColor=#232F3E;fillColor=#ED7100;strokeColor=#ffffff;dashed=0;verticalLabelPosition=bottom;verticalAlign=top;align=center;html=1;fontSize=12;fontStyle=0;aspect=fixed;shape=mxgraph.aws4.resourceIcon;resIcon=mxgraph.aws4.ec2;" parent="A2vJV-OQSbmhu9kA1xCI-3" vertex="1">
          <mxGeometry x="70" y="325" width="20" height="20" as="geometry" />
        </mxCell>
        <mxCell id="An_1RY7F4cl6Hvax1nNE-6" value="&lt;b&gt;&lt;font style=&quot;font-size: 8px;&quot; face=&quot;Comic Sans MS&quot;&gt;catalogue.backend-dev.daws84s.site&lt;/font&gt;&lt;/b&gt;" style="text;html=1;align=center;verticalAlign=middle;resizable=0;points=[];autosize=1;strokeColor=none;fillColor=none;" parent="A2vJV-OQSbmhu9kA1xCI-3" vertex="1">
          <mxGeometry x="-55" y="10" width="170" height="30" as="geometry" />
        </mxCell>
        <mxCell id="An_1RY7F4cl6Hvax1nNE-36" value="" style="sketch=0;outlineConnect=0;fontColor=#232F3E;gradientColor=none;fillColor=#ED7100;strokeColor=none;dashed=0;verticalLabelPosition=bottom;verticalAlign=top;align=center;html=1;fontSize=12;fontStyle=0;aspect=fixed;pointerEvents=1;shape=mxgraph.aws4.auto_scaling2;" parent="A2vJV-OQSbmhu9kA1xCI-3" vertex="1">
          <mxGeometry x="95" y="267" width="33" height="33" as="geometry" />
        </mxCell>
        <mxCell id="An_1RY7F4cl6Hvax1nNE-37" value="" style="sketch=0;outlineConnect=0;fontColor=#232F3E;gradientColor=none;fillColor=#ED7100;strokeColor=none;dashed=0;verticalLabelPosition=bottom;verticalAlign=top;align=center;html=1;fontSize=12;fontStyle=0;aspect=fixed;pointerEvents=1;shape=mxgraph.aws4.auto_scaling2;" parent="A2vJV-OQSbmhu9kA1xCI-3" vertex="1">
          <mxGeometry x="95" y="330" width="33" height="33" as="geometry" />
        </mxCell>
        <mxCell id="An_1RY7F4cl6Hvax1nNE-48" value="" style="rounded=1;whiteSpace=wrap;html=1;fillColor=#dae8fc;gradientColor=#7ea6e0;strokeColor=#6c8ebf;" parent="A2vJV-OQSbmhu9kA1xCI-3" vertex="1">
          <mxGeometry x="-250" y="150" width="90" height="50" as="geometry" />
        </mxCell>
        <mxCell id="A2vJV-OQSbmhu9kA1xCI-6" value="" style="outlineConnect=0;dashed=0;verticalLabelPosition=bottom;verticalAlign=top;align=center;html=1;shape=mxgraph.aws3.application_load_balancer;fillColor=#F58534;gradientColor=none;" parent="A2vJV-OQSbmhu9kA1xCI-3" vertex="1">
          <mxGeometry x="-90" y="147" width="54" height="56" as="geometry" />
        </mxCell>
        <mxCell id="XsuamS3QXFXl19HTuxb_-2" style="edgeStyle=orthogonalEdgeStyle;rounded=0;orthogonalLoop=1;jettySize=auto;html=1;entryX=0;entryY=0.5;entryDx=0;entryDy=0;" parent="A2vJV-OQSbmhu9kA1xCI-3" source="A2vJV-OQSbmhu9kA1xCI-6" target="XsuamS3QXFXl19HTuxb_-1" edge="1">
          <mxGeometry relative="1" as="geometry">
            <Array as="points">
              <mxPoint x="-30" y="172" />
              <mxPoint x="-30" y="55" />
            </Array>
          </mxGeometry>
        </mxCell>
        <mxCell id="An_1RY7F4cl6Hvax1nNE-11" style="edgeStyle=orthogonalEdgeStyle;rounded=0;orthogonalLoop=1;jettySize=auto;html=1;entryX=0;entryY=0.5;entryDx=0;entryDy=0;" parent="A2vJV-OQSbmhu9kA1xCI-3" source="A2vJV-OQSbmhu9kA1xCI-6" target="An_1RY7F4cl6Hvax1nNE-7" edge="1">
          <mxGeometry relative="1" as="geometry">
            <Array as="points">
              <mxPoint x="-30" y="172" />
              <mxPoint x="-30" y="125" />
            </Array>
          </mxGeometry>
        </mxCell>
        <mxCell id="An_1RY7F4cl6Hvax1nNE-19" style="edgeStyle=orthogonalEdgeStyle;rounded=0;orthogonalLoop=1;jettySize=auto;html=1;entryX=0;entryY=0.5;entryDx=0;entryDy=0;" parent="A2vJV-OQSbmhu9kA1xCI-3" source="A2vJV-OQSbmhu9kA1xCI-6" target="An_1RY7F4cl6Hvax1nNE-15" edge="1">
          <mxGeometry relative="1" as="geometry">
            <Array as="points">
              <mxPoint x="-30" y="172" />
              <mxPoint x="-30" y="195" />
            </Array>
          </mxGeometry>
        </mxCell>
        <mxCell id="An_1RY7F4cl6Hvax1nNE-20" style="edgeStyle=orthogonalEdgeStyle;rounded=0;orthogonalLoop=1;jettySize=auto;html=1;entryX=0;entryY=0.5;entryDx=0;entryDy=0;" parent="A2vJV-OQSbmhu9kA1xCI-3" source="A2vJV-OQSbmhu9kA1xCI-6" target="An_1RY7F4cl6Hvax1nNE-16" edge="1">
          <mxGeometry relative="1" as="geometry">
            <Array as="points">
              <mxPoint x="-30" y="172" />
              <mxPoint x="-30" y="265" />
            </Array>
          </mxGeometry>
        </mxCell>
        <mxCell id="An_1RY7F4cl6Hvax1nNE-21" style="edgeStyle=orthogonalEdgeStyle;rounded=0;orthogonalLoop=1;jettySize=auto;html=1;entryX=0;entryY=0.5;entryDx=0;entryDy=0;" parent="A2vJV-OQSbmhu9kA1xCI-3" source="A2vJV-OQSbmhu9kA1xCI-6" target="An_1RY7F4cl6Hvax1nNE-18" edge="1">
          <mxGeometry relative="1" as="geometry">
            <Array as="points">
              <mxPoint x="-30" y="172" />
              <mxPoint x="-30" y="335" />
            </Array>
          </mxGeometry>
        </mxCell>
        <mxCell id="An_1RY7F4cl6Hvax1nNE-54" value="" style="outlineConnect=0;dashed=0;verticalLabelPosition=bottom;verticalAlign=top;align=center;html=1;shape=mxgraph.aws3.application_load_balancer;fillColor=#F58534;gradientColor=none;" parent="A2vJV-OQSbmhu9kA1xCI-3" vertex="1">
          <mxGeometry x="-320" y="147" width="54" height="56" as="geometry" />
        </mxCell>
        <mxCell id="An_1RY7F4cl6Hvax1nNE-55" style="edgeStyle=orthogonalEdgeStyle;rounded=0;orthogonalLoop=1;jettySize=auto;html=1;entryX=0;entryY=0.5;entryDx=0;entryDy=0;flowAnimation=1;" parent="A2vJV-OQSbmhu9kA1xCI-3" source="An_1RY7F4cl6Hvax1nNE-54" target="An_1RY7F4cl6Hvax1nNE-48" edge="1">
          <mxGeometry relative="1" as="geometry" />
        </mxCell>
        <mxCell id="An_1RY7F4cl6Hvax1nNE-58" value="" style="sketch=0;points=[[0,0,0],[0.25,0,0],[0.5,0,0],[0.75,0,0],[1,0,0],[0,1,0],[0.25,1,0],[0.5,1,0],[0.75,1,0],[1,1,0],[0,0.25,0],[0,0.5,0],[0,0.75,0],[1,0.25,0],[1,0.5,0],[1,0.75,0]];outlineConnect=0;fontColor=#232F3E;fillColor=#8C4FFF;strokeColor=#ffffff;dashed=0;verticalLabelPosition=bottom;verticalAlign=top;align=center;html=1;fontSize=12;fontStyle=0;aspect=fixed;shape=mxgraph.aws4.resourceIcon;resIcon=mxgraph.aws4.route_53;" parent="A2vJV-OQSbmhu9kA1xCI-3" vertex="1">
          <mxGeometry x="-390" y="160.5" width="27.5" height="27.5" as="geometry" />
        </mxCell>
        <mxCell id="An_1RY7F4cl6Hvax1nNE-59" style="edgeStyle=orthogonalEdgeStyle;rounded=0;orthogonalLoop=1;jettySize=auto;html=1;entryX=0;entryY=0.5;entryDx=0;entryDy=0;entryPerimeter=0;flowAnimation=1;" parent="A2vJV-OQSbmhu9kA1xCI-3" source="An_1RY7F4cl6Hvax1nNE-58" target="An_1RY7F4cl6Hvax1nNE-54" edge="1">
          <mxGeometry relative="1" as="geometry" />
        </mxCell>
        <mxCell id="An_1RY7F4cl6Hvax1nNE-60" value="" style="verticalLabelPosition=bottom;shadow=0;dashed=0;align=center;html=1;verticalAlign=top;strokeWidth=1;shape=mxgraph.mockup.containers.userMale;strokeColor=#b85450;strokeColor2=#008cff;fillColor=#f8cecc;gradientColor=#ea6b66;" parent="A2vJV-OQSbmhu9kA1xCI-3" vertex="1">
          <mxGeometry x="-550" y="146.75" width="80" height="55" as="geometry" />
        </mxCell>
        <mxCell id="An_1RY7F4cl6Hvax1nNE-61" style="edgeStyle=orthogonalEdgeStyle;rounded=0;orthogonalLoop=1;jettySize=auto;html=1;entryX=0;entryY=0.5;entryDx=0;entryDy=0;entryPerimeter=0;flowAnimation=1;" parent="A2vJV-OQSbmhu9kA1xCI-3" source="An_1RY7F4cl6Hvax1nNE-60" target="An_1RY7F4cl6Hvax1nNE-58" edge="1">
          <mxGeometry relative="1" as="geometry" />
        </mxCell>
        <mxCell id="An_1RY7F4cl6Hvax1nNE-66" style="edgeStyle=orthogonalEdgeStyle;rounded=0;orthogonalLoop=1;jettySize=auto;html=1;" parent="A2vJV-OQSbmhu9kA1xCI-3" source="An_1RY7F4cl6Hvax1nNE-15" edge="1">
          <mxGeometry relative="1" as="geometry">
            <mxPoint x="260" y="130" as="targetPoint" />
            <Array as="points">
              <mxPoint x="180" y="197" />
              <mxPoint x="180" y="197" />
            </Array>
          </mxGeometry>
        </mxCell>
        <mxCell id="An_1RY7F4cl6Hvax1nNE-67" value="&lt;b&gt;&lt;font style=&quot;font-size: 8px;&quot; face=&quot;Comic Sans MS&quot;&gt;Cart&lt;/font&gt;&lt;/b&gt;" style="text;html=1;align=center;verticalAlign=middle;resizable=0;points=[];autosize=1;strokeColor=none;fillColor=none;" parent="A2vJV-OQSbmhu9kA1xCI-3" vertex="1">
          <mxGeometry x="40" y="163" width="40" height="30" as="geometry" />
        </mxCell>
        <mxCell id="An_1RY7F4cl6Hvax1nNE-49" value="" style="sketch=0;points=[[0,0,0],[0.25,0,0],[0.5,0,0],[0.75,0,0],[1,0,0],[0,1,0],[0.25,1,0],[0.5,1,0],[0.75,1,0],[1,1,0],[0,0.25,0],[0,0.5,0],[0,0.75,0],[1,0.25,0],[1,0.5,0],[1,0.75,0]];outlineConnect=0;fontColor=#232F3E;fillColor=#ED7100;strokeColor=#ffffff;dashed=0;verticalLabelPosition=bottom;verticalAlign=top;align=center;html=1;fontSize=12;fontStyle=0;aspect=fixed;shape=mxgraph.aws4.resourceIcon;resIcon=mxgraph.aws4.ec2;" parent="A2vJV-OQSbmhu9kA1xCI-3" vertex="1">
          <mxGeometry x="-240" y="168" width="20" height="20" as="geometry" />
        </mxCell>
        <mxCell id="A2vJV-OQSbmhu9kA1xCI-5" value="&lt;b&gt;Database subnet&lt;/b&gt;" style="points=[[0,0],[0.25,0],[0.5,0],[0.75,0],[1,0],[1,0.25],[1,0.5],[1,0.75],[1,1],[0.75,1],[0.5,1],[0.25,1],[0,1],[0,0.75],[0,0.5],[0,0.25]];outlineConnect=0;html=1;whiteSpace=wrap;fontSize=12;fontStyle=0;container=1;pointerEvents=0;collapsible=0;recursiveResize=0;shape=mxgraph.aws4.group;grIcon=mxgraph.aws4.group_security_group;grStroke=0;strokeColor=#b85450;fillColor=#f8cecc;verticalAlign=top;align=left;spacingLeft=30;dashed=0;" parent="A2vJV-OQSbmhu9kA1xCI-2" vertex="1">
          <mxGeometry x="600" y="40" width="130" height="370" as="geometry" />
        </mxCell>
        <mxCell id="A2vJV-OQSbmhu9kA1xCI-18" value="&lt;b&gt;MongoDB&lt;/b&gt;" style="rounded=1;whiteSpace=wrap;html=1;fillColor=#dae8fc;gradientColor=#7ea6e0;strokeColor=#6c8ebf;" parent="A2vJV-OQSbmhu9kA1xCI-5" vertex="1">
          <mxGeometry x="25" y="30" width="80" height="50" as="geometry" />
        </mxCell>
        <mxCell id="An_1RY7F4cl6Hvax1nNE-39" value="&lt;b&gt;Redis&lt;/b&gt;" style="rounded=1;whiteSpace=wrap;html=1;fillColor=#d5e8d4;gradientColor=#97d077;strokeColor=#82b366;" parent="A2vJV-OQSbmhu9kA1xCI-5" vertex="1">
          <mxGeometry x="25" y="100" width="80" height="50" as="geometry" />
        </mxCell>
        <mxCell id="An_1RY7F4cl6Hvax1nNE-41" value="&lt;b&gt;MySQL&lt;/b&gt;" style="rounded=1;whiteSpace=wrap;html=1;fillColor=#fff2cc;gradientColor=#ffd966;strokeColor=#d6b656;" parent="A2vJV-OQSbmhu9kA1xCI-5" vertex="1">
          <mxGeometry x="25" y="240" width="80" height="50" as="geometry" />
        </mxCell>
        <mxCell id="An_1RY7F4cl6Hvax1nNE-42" value="&lt;b&gt;RabbitMQ&lt;/b&gt;" style="rounded=1;whiteSpace=wrap;html=1;fillColor=#f5f5f5;gradientColor=#b3b3b3;strokeColor=#666666;" parent="A2vJV-OQSbmhu9kA1xCI-5" vertex="1">
          <mxGeometry x="25" y="310" width="80" height="50" as="geometry" />
        </mxCell>
        <mxCell id="A2vJV-OQSbmhu9kA1xCI-9" value="" style="sketch=0;aspect=fixed;pointerEvents=1;shadow=0;dashed=0;html=1;strokeColor=none;labelPosition=center;verticalLabelPosition=bottom;verticalAlign=top;align=center;fillColor=#00188D;shape=mxgraph.mscae.enterprise.lock_unlocked" parent="A2vJV-OQSbmhu9kA1xCI-2" vertex="1">
          <mxGeometry x="252.2" y="150" width="29.6" height="40" as="geometry" />
        </mxCell>
        <mxCell id="An_1RY7F4cl6Hvax1nNE-13" value="&lt;font style=&quot;font-size: 8px;&quot; face=&quot;Comic Sans MS&quot;&gt;&lt;b style=&quot;&quot;&gt;user.backend-dev.daws84s.site&lt;/b&gt;&lt;/font&gt;" style="text;html=1;align=center;verticalAlign=middle;resizable=0;points=[];autosize=1;strokeColor=none;fillColor=none;" parent="A2vJV-OQSbmhu9kA1xCI-2" vertex="1">
          <mxGeometry x="290" y="120" width="150" height="30" as="geometry" />
        </mxCell>
        <mxCell id="An_1RY7F4cl6Hvax1nNE-14" value="&lt;b&gt;&lt;font style=&quot;font-size: 8px;&quot; face=&quot;Comic Sans MS&quot;&gt;User&lt;/font&gt;&lt;/b&gt;" style="text;html=1;align=center;verticalAlign=middle;resizable=0;points=[];autosize=1;strokeColor=none;fillColor=none;" parent="A2vJV-OQSbmhu9kA1xCI-2" vertex="1">
          <mxGeometry x="375" y="130" width="40" height="30" as="geometry" />
        </mxCell>
        <mxCell id="An_1RY7F4cl6Hvax1nNE-23" value="&lt;font style=&quot;font-size: 8px;&quot; face=&quot;Comic Sans MS&quot;&gt;&lt;b style=&quot;&quot;&gt;shipping.backend-dev.daws84s.site&lt;/b&gt;&lt;/font&gt;" style="text;html=1;align=center;verticalAlign=middle;resizable=0;points=[];autosize=1;strokeColor=none;fillColor=none;" parent="A2vJV-OQSbmhu9kA1xCI-2" vertex="1">
          <mxGeometry x="305" y="260" width="160" height="30" as="geometry" />
        </mxCell>
        <mxCell id="An_1RY7F4cl6Hvax1nNE-26" value="&lt;b&gt;&lt;font style=&quot;font-size: 8px;&quot; face=&quot;Comic Sans MS&quot;&gt;Shipping&lt;/font&gt;&lt;/b&gt;" style="text;html=1;align=center;verticalAlign=middle;resizable=0;points=[];autosize=1;strokeColor=none;fillColor=none;" parent="A2vJV-OQSbmhu9kA1xCI-2" vertex="1">
          <mxGeometry x="365" y="270" width="60" height="30" as="geometry" />
        </mxCell>
        <mxCell id="An_1RY7F4cl6Hvax1nNE-35" value="" style="sketch=0;outlineConnect=0;fontColor=#232F3E;gradientColor=none;fillColor=#ED7100;strokeColor=none;dashed=0;verticalLabelPosition=bottom;verticalAlign=top;align=center;html=1;fontSize=12;fontStyle=0;aspect=fixed;pointerEvents=1;shape=mxgraph.aws4.auto_scaling2;" parent="A2vJV-OQSbmhu9kA1xCI-2" vertex="1">
          <mxGeometry x="425" y="240" width="33" height="33" as="geometry" />
        </mxCell>
        <mxCell id="An_1RY7F4cl6Hvax1nNE-38" style="edgeStyle=orthogonalEdgeStyle;rounded=0;orthogonalLoop=1;jettySize=auto;html=1;entryX=0;entryY=0.5;entryDx=0;entryDy=0;" parent="A2vJV-OQSbmhu9kA1xCI-2" source="XsuamS3QXFXl19HTuxb_-1" target="A2vJV-OQSbmhu9kA1xCI-18" edge="1">
          <mxGeometry relative="1" as="geometry" />
        </mxCell>
        <mxCell id="An_1RY7F4cl6Hvax1nNE-40" style="edgeStyle=orthogonalEdgeStyle;rounded=0;orthogonalLoop=1;jettySize=auto;html=1;entryX=0;entryY=0.5;entryDx=0;entryDy=0;" parent="A2vJV-OQSbmhu9kA1xCI-2" source="An_1RY7F4cl6Hvax1nNE-7" target="An_1RY7F4cl6Hvax1nNE-39" edge="1">
          <mxGeometry relative="1" as="geometry" />
        </mxCell>
        <mxCell id="An_1RY7F4cl6Hvax1nNE-45" style="edgeStyle=orthogonalEdgeStyle;rounded=0;orthogonalLoop=1;jettySize=auto;html=1;entryX=0;entryY=0.5;entryDx=0;entryDy=0;" parent="A2vJV-OQSbmhu9kA1xCI-2" source="An_1RY7F4cl6Hvax1nNE-16" target="An_1RY7F4cl6Hvax1nNE-41" edge="1">
          <mxGeometry relative="1" as="geometry" />
        </mxCell>
        <mxCell id="An_1RY7F4cl6Hvax1nNE-46" style="edgeStyle=orthogonalEdgeStyle;rounded=0;orthogonalLoop=1;jettySize=auto;html=1;" parent="A2vJV-OQSbmhu9kA1xCI-2" source="An_1RY7F4cl6Hvax1nNE-18" target="An_1RY7F4cl6Hvax1nNE-42" edge="1">
          <mxGeometry relative="1" as="geometry" />
        </mxCell>
        <mxCell id="An_1RY7F4cl6Hvax1nNE-56" value="" style="sketch=0;aspect=fixed;pointerEvents=1;shadow=0;dashed=0;html=1;strokeColor=none;labelPosition=center;verticalLabelPosition=bottom;verticalAlign=top;align=center;fillColor=#00188D;shape=mxgraph.mscae.enterprise.lock_unlocked" parent="A2vJV-OQSbmhu9kA1xCI-2" vertex="1">
          <mxGeometry x="20.400000000000006" y="150" width="29.6" height="40" as="geometry" />
        </mxCell>
        <mxCell id="An_1RY7F4cl6Hvax1nNE-34" value="&lt;b&gt;&lt;font face=&quot;Comic Sans MS&quot; style=&quot;font-size: 10px;&quot;&gt;*.backend-dev.daws84s.site&lt;/font&gt;&lt;/b&gt;" style="text;html=1;align=center;verticalAlign=middle;resizable=0;points=[];autosize=1;strokeColor=none;fillColor=none;" parent="A2vJV-OQSbmhu9kA1xCI-2" vertex="1">
          <mxGeometry x="145" y="240" width="160" height="30" as="geometry" />
        </mxCell>
        <mxCell id="A2vJV-OQSbmhu9kA1xCI-13" style="edgeStyle=orthogonalEdgeStyle;rounded=0;orthogonalLoop=1;jettySize=auto;html=1;" parent="1" source="A2vJV-OQSbmhu9kA1xCI-15" edge="1">
          <mxGeometry relative="1" as="geometry">
            <mxPoint x="190" y="470" as="targetPoint" />
          </mxGeometry>
        </mxCell>
        <mxCell id="A2vJV-OQSbmhu9kA1xCI-16" value="" style="edgeStyle=orthogonalEdgeStyle;rounded=0;orthogonalLoop=1;jettySize=auto;html=1;" parent="1" target="A2vJV-OQSbmhu9kA1xCI-15" edge="1">
          <mxGeometry relative="1" as="geometry">
            <mxPoint x="-30" y="470" as="sourcePoint" />
            <mxPoint x="240" y="470" as="targetPoint" />
          </mxGeometry>
        </mxCell>
        <mxCell id="A2vJV-OQSbmhu9kA1xCI-15" value="" style="sketch=0;pointerEvents=1;shadow=0;dashed=0;html=1;strokeColor=none;fillColor=#DF8C42;labelPosition=center;verticalLabelPosition=bottom;verticalAlign=top;align=center;outlineConnect=0;shape=mxgraph.veeam2.open_vpn;" parent="1" vertex="1">
          <mxGeometry x="-10" y="453" width="34" height="34" as="geometry" />
        </mxCell>
        <mxCell id="A2vJV-OQSbmhu9kA1xCI-20" style="edgeStyle=orthogonalEdgeStyle;rounded=0;orthogonalLoop=1;jettySize=auto;html=1;entryX=0.178;entryY=0.541;entryDx=0;entryDy=0;entryPerimeter=0;" parent="1" target="A2vJV-OQSbmhu9kA1xCI-7" edge="1">
          <mxGeometry relative="1" as="geometry">
            <Array as="points">
              <mxPoint x="80" y="232" />
              <mxPoint x="80" y="232" />
            </Array>
            <mxPoint x="-30" y="232" as="sourcePoint" />
          </mxGeometry>
        </mxCell>
        <mxCell id="KXtc4oaPjFd6zUVUoGjn-1" value="" style="shape=image;html=1;verticalAlign=top;verticalLabelPosition=bottom;labelBackgroundColor=#ffffff;imageAspect=0;aspect=fixed;image=https://cdn0.iconfinder.com/data/icons/job-seeker/256/laptop_job_seeker_employee_unemployee_work_1-128.png" parent="1" vertex="1">
          <mxGeometry x="-60" y="220" width="30" height="30" as="geometry" />
        </mxCell>
        <mxCell id="KXtc4oaPjFd6zUVUoGjn-2" value="" style="shape=image;html=1;verticalAlign=top;verticalLabelPosition=bottom;labelBackgroundColor=#ffffff;imageAspect=0;aspect=fixed;image=https://cdn0.iconfinder.com/data/icons/job-seeker/256/laptop_job_seeker_employee_unemployee_work_1-128.png" parent="1" vertex="1">
          <mxGeometry x="-60" y="453" width="30" height="30" as="geometry" />
        </mxCell>
        <mxCell id="An_1RY7F4cl6Hvax1nNE-50" value="" style="sketch=0;points=[[0,0,0],[0.25,0,0],[0.5,0,0],[0.75,0,0],[1,0,0],[0,1,0],[0.25,1,0],[0.5,1,0],[0.75,1,0],[1,1,0],[0,0.25,0],[0,0.5,0],[0,0.75,0],[1,0.25,0],[1,0.5,0],[1,0.75,0]];outlineConnect=0;fontColor=#232F3E;fillColor=#ED7100;strokeColor=#ffffff;dashed=0;verticalLabelPosition=bottom;verticalAlign=top;align=center;html=1;fontSize=12;fontStyle=0;aspect=fixed;shape=mxgraph.aws4.resourceIcon;resIcon=mxgraph.aws4.ec2;" parent="1" vertex="1">
          <mxGeometry x="250" y="318" width="20" height="20" as="geometry" />
        </mxCell>
        <mxCell id="An_1RY7F4cl6Hvax1nNE-51" value="" style="sketch=0;outlineConnect=0;fontColor=#232F3E;gradientColor=none;fillColor=#ED7100;strokeColor=none;dashed=0;verticalLabelPosition=bottom;verticalAlign=top;align=center;html=1;fontSize=12;fontStyle=0;aspect=fixed;pointerEvents=1;shape=mxgraph.aws4.auto_scaling2;" parent="1" vertex="1">
          <mxGeometry x="260" y="328.5" width="33" height="33" as="geometry" />
        </mxCell>
        <mxCell id="An_1RY7F4cl6Hvax1nNE-52" value="&lt;b&gt;&lt;font face=&quot;Comic Sans MS&quot; style=&quot;font-size: 8px;&quot;&gt;frontend&lt;/font&gt;&lt;/b&gt;" style="text;html=1;align=center;verticalAlign=middle;resizable=0;points=[];autosize=1;strokeColor=none;fillColor=none;" parent="1" vertex="1">
          <mxGeometry x="205" y="290" width="60" height="30" as="geometry" />
        </mxCell>
        <mxCell id="An_1RY7F4cl6Hvax1nNE-69" value="" style="sketch=0;points=[[0,0,0],[0.25,0,0],[0.5,0,0],[0.75,0,0],[1,0,0],[0,1,0],[0.25,1,0],[0.5,1,0],[0.75,1,0],[1,1,0],[0,0.25,0],[0,0.5,0],[0,0.75,0],[1,0.25,0],[1,0.5,0],[1,0.75,0]];outlineConnect=0;fontColor=#232F3E;fillColor=#8C4FFF;strokeColor=#ffffff;dashed=0;verticalLabelPosition=bottom;verticalAlign=top;align=center;html=1;fontSize=12;fontStyle=0;aspect=fixed;shape=mxgraph.aws4.resourceIcon;resIcon=mxgraph.aws4.route_53;" parent="1" vertex="1">
          <mxGeometry x="300" y="310.5" width="27.5" height="27.5" as="geometry" />
        </mxCell>
        <mxCell id="An_1RY7F4cl6Hvax1nNE-70" style="edgeStyle=orthogonalEdgeStyle;rounded=0;orthogonalLoop=1;jettySize=auto;html=1;entryX=0;entryY=0.5;entryDx=0;entryDy=0;entryPerimeter=0;" parent="1" source="An_1RY7F4cl6Hvax1nNE-48" target="An_1RY7F4cl6Hvax1nNE-69" edge="1">
          <mxGeometry relative="1" as="geometry" />
        </mxCell>
        <mxCell id="An_1RY7F4cl6Hvax1nNE-73" style="edgeStyle=orthogonalEdgeStyle;rounded=0;orthogonalLoop=1;jettySize=auto;html=1;" parent="1" source="An_1RY7F4cl6Hvax1nNE-69" target="A2vJV-OQSbmhu9kA1xCI-6" edge="1">
          <mxGeometry relative="1" as="geometry" />
        </mxCell>
      </root>
    </mxGraphModel>
  </diagram>
</mxfile>
